<?xml version="1.0" encoding="UTF-8"?>
<!-- Generator: Adobe Illustrator 16.0.0, SVG Export Plug-In . SVG Version: 6.00 Build 0)  -->
<!DOCTYPE svg PUBLIC "-//W3C//DTD SVG 1.1//EN" "http://www.w3.org/Graphics/SVG/1.1/DTD/svg11.dtd">
<svg version="1.1" id="Layer_1" xmlns="http://www.w3.org/2000/svg" xmlns:xlink="http://www.w3.org/1999/xlink" x="0px" y="0px" width="127px" height="19.4px" viewBox="0 0 127 19.4" enable-background="new 0 0 127 19.4" xml:space="preserve">
<g transform="translate(1 1)">
	<g>
		<path id="a" fill="#FFFFFF" d="M124.998,0.079H0.917L5.928,8.7l-5.003,8.621h124.073V0.079z"/>
	</g>
	<path fill="none" stroke="#D7D7D7" d="M5.356,8.7L0.065-0.4h125.433V17.8H0.075L5.356,8.7z"/>
</g>
<path id="Path_8_" fill="#B91912" d="M103.92,6.26c0-0.181,0.064-0.336,0.191-0.466c0.133-0.13,0.285-0.194,0.469-0.194  c0.18,0,0.334,0.064,0.465,0.194c0.129,0.13,0.191,0.285,0.191,0.466c0,0.18-0.063,0.334-0.191,0.465  c-0.131,0.13-0.285,0.194-0.465,0.194c-0.184,0-0.336-0.063-0.469-0.194C103.984,6.594,103.92,6.44,103.92,6.26z"/>
<g>
	<path id="Powered-by-magicbric_1_" d="M13.459,8.33h1.16c0.316,0,0.592-0.032,0.813-0.101c0.225-0.066,0.402-0.154,0.535-0.265   s0.229-0.24,0.291-0.391c0.06-0.15,0.09-0.313,0.09-0.484c0-0.168-0.03-0.326-0.09-0.476c-0.063-0.149-0.158-0.282-0.291-0.396   c-0.133-0.112-0.313-0.201-0.535-0.265s-0.494-0.096-0.813-0.096h-1.16V8.33z M12.74,5.2h2.063c0.72,0,1.287,0.156,1.705,0.471   c0.416,0.313,0.625,0.786,0.625,1.42c0,0.633-0.211,1.107-0.627,1.424c-0.416,0.317-0.984,0.477-1.705,0.477h-1.34v3.291h-0.723   L12.74,5.2L12.74,5.2z M22.25,9.941c0-0.26-0.042-0.503-0.125-0.729c-0.084-0.228-0.202-0.423-0.354-0.59   c-0.153-0.167-0.338-0.298-0.555-0.396C20.998,8.128,20.752,8.08,20.48,8.08c-0.271,0-0.519,0.048-0.732,0.146   c-0.219,0.098-0.399,0.229-0.553,0.396c-0.147,0.167-0.267,0.362-0.351,0.59c-0.082,0.228-0.125,0.471-0.125,0.729   c0,0.259,0.043,0.503,0.125,0.73c0.084,0.227,0.201,0.422,0.351,0.59c0.149,0.166,0.334,0.297,0.553,0.396   c0.216,0.098,0.461,0.145,0.732,0.145c0.272,0,0.521-0.047,0.735-0.145c0.213-0.1,0.398-0.23,0.555-0.396s0.271-0.363,0.354-0.59   C22.208,10.442,22.25,10.2,22.25,9.941z M22.969,9.941c0,0.355-0.063,0.681-0.188,0.98c-0.123,0.299-0.295,0.561-0.516,0.779   c-0.219,0.221-0.479,0.393-0.784,0.516c-0.304,0.123-0.638,0.186-1.005,0.186c-0.357,0-0.689-0.063-0.995-0.186   c-0.304-0.125-0.563-0.295-0.785-0.516c-0.22-0.221-0.392-0.48-0.515-0.779c-0.123-0.301-0.186-0.627-0.186-0.98   c0-0.353,0.063-0.68,0.186-0.979s0.295-0.56,0.515-0.779c0.224-0.221,0.481-0.393,0.785-0.516c0.306-0.123,0.638-0.186,0.998-0.186   c0.366,0,0.702,0.063,1.005,0.186c0.306,0.124,0.564,0.295,0.785,0.516c0.22,0.221,0.394,0.479,0.515,0.779   C22.909,9.261,22.969,9.587,22.969,9.941z M24.37,7.601l1.077,3.8h0.021l1.25-3.8h0.681l1.25,3.8h0.021l1.08-3.8h0.777   l-1.477,4.681h-0.74L27.07,8.441h-0.021l-1.24,3.841H25.07L23.59,7.601H24.37z M35.03,9.58c0-0.446-0.133-0.809-0.396-1.085   C34.364,8.218,33.99,8.08,33.51,8.08c-0.215,0-0.42,0.042-0.621,0.125C32.69,8.288,32.514,8.4,32.365,8.54s-0.271,0.301-0.36,0.479   c-0.09,0.18-0.135,0.365-0.135,0.561H35.03z M31.85,10.12c0.021,0.232,0.076,0.455,0.17,0.66c0.094,0.207,0.217,0.385,0.369,0.535   c0.154,0.15,0.33,0.268,0.531,0.355c0.199,0.086,0.416,0.129,0.646,0.129c0.354,0,0.658-0.082,0.915-0.244   c0.257-0.164,0.452-0.354,0.585-0.564l0.513,0.42c-0.28,0.354-0.591,0.605-0.928,0.76c-0.336,0.152-0.696,0.229-1.085,0.229   c-0.348,0-0.668-0.061-0.965-0.184s-0.553-0.295-0.766-0.516c-0.214-0.221-0.382-0.48-0.505-0.779   c-0.124-0.301-0.188-0.627-0.188-0.981c0-0.353,0.063-0.68,0.184-0.979c0.117-0.3,0.284-0.561,0.5-0.779   c0.213-0.221,0.463-0.393,0.75-0.516c0.288-0.123,0.6-0.186,0.932-0.186c0.354,0,0.67,0.063,0.95,0.19   c0.277,0.125,0.515,0.295,0.705,0.504c0.188,0.211,0.335,0.457,0.435,0.74c0.101,0.284,0.15,0.585,0.15,0.905v0.3L31.85,10.12   L31.85,10.12z M37.02,9.061c0-0.207-0.006-0.417-0.016-0.63s-0.021-0.49-0.024-0.83h0.649V8.47h0.021   c0.047-0.125,0.112-0.248,0.2-0.364c0.086-0.116,0.19-0.222,0.314-0.314c0.123-0.093,0.268-0.168,0.43-0.226   c0.164-0.057,0.35-0.085,0.556-0.085c0.188,0,0.353,0.021,0.489,0.061L39.51,8.191c-0.088-0.033-0.215-0.051-0.381-0.051   c-0.254,0-0.473,0.049-0.649,0.146c-0.179,0.097-0.33,0.22-0.45,0.37c-0.12,0.149-0.208,0.313-0.266,0.483   c-0.057,0.174-0.084,0.341-0.084,0.5v2.642h-0.66V9.061z M43.73,9.58c0-0.446-0.134-0.809-0.397-1.085   c-0.27-0.277-0.643-0.415-1.123-0.415c-0.214,0-0.42,0.042-0.619,0.125C41.389,8.288,41.215,8.4,41.065,8.54   s-0.27,0.301-0.36,0.479C40.612,9.2,40.567,9.385,40.567,9.58H43.73z M40.549,10.12c0.021,0.232,0.076,0.455,0.17,0.66   c0.094,0.207,0.217,0.385,0.371,0.535c0.15,0.15,0.33,0.268,0.529,0.355c0.197,0.086,0.414,0.129,0.646,0.129   c0.354,0,0.658-0.082,0.916-0.244c0.257-0.164,0.451-0.354,0.584-0.564l0.511,0.42c-0.277,0.354-0.588,0.605-0.925,0.76   c-0.338,0.152-0.698,0.229-1.086,0.229c-0.346,0-0.668-0.061-0.965-0.184s-0.552-0.295-0.765-0.516   c-0.216-0.221-0.384-0.48-0.508-0.779c-0.123-0.301-0.185-0.627-0.185-0.981c0-0.353,0.06-0.68,0.18-0.979   c0.119-0.3,0.287-0.561,0.5-0.779c0.214-0.221,0.464-0.393,0.75-0.516c0.293-0.123,0.602-0.186,0.936-0.186   c0.354,0,0.67,0.063,0.947,0.19c0.279,0.125,0.518,0.295,0.705,0.504c0.189,0.211,0.335,0.457,0.438,0.74   c0.101,0.284,0.147,0.585,0.147,0.905v0.3L40.549,10.12L40.549,10.12z M46.049,9.941c0,0.261,0.041,0.503,0.125,0.73   s0.201,0.422,0.354,0.59c0.153,0.166,0.339,0.297,0.558,0.396c0.217,0.098,0.461,0.145,0.732,0.145c0.27,0,0.518-0.047,0.745-0.145   c0.229-0.1,0.429-0.23,0.595-0.396c0.167-0.168,0.299-0.363,0.393-0.59s0.141-0.471,0.141-0.73c0-0.259-0.047-0.503-0.141-0.729   c-0.094-0.228-0.226-0.423-0.393-0.59c-0.166-0.167-0.361-0.298-0.595-0.396C48.334,8.128,48.086,8.08,47.82,8.08   c-0.271,0-0.519,0.048-0.731,0.146c-0.217,0.098-0.402,0.229-0.559,0.396c-0.15,0.167-0.271,0.362-0.354,0.59   C46.09,9.438,46.049,9.681,46.049,9.941z M50.32,12.28h-0.66v-0.779h-0.021c-0.105,0.16-0.232,0.297-0.379,0.41   c-0.147,0.111-0.301,0.207-0.461,0.279s-0.324,0.125-0.494,0.16c-0.17,0.033-0.332,0.049-0.485,0.049   c-0.364,0-0.701-0.061-1.005-0.184c-0.303-0.125-0.563-0.295-0.785-0.516c-0.221-0.221-0.393-0.48-0.516-0.779   c-0.123-0.301-0.185-0.627-0.185-0.981c0-0.353,0.062-0.68,0.185-0.979S45.809,8.4,46.03,8.181   c0.223-0.221,0.482-0.393,0.785-0.516c0.304-0.123,0.638-0.186,1.005-0.186c0.153,0,0.315,0.018,0.485,0.051   c0.17,0.032,0.334,0.087,0.494,0.159s0.313,0.167,0.461,0.279c0.146,0.113,0.271,0.25,0.379,0.41h0.021v-3.66h0.66V12.28z    M58.809,9.941c0-0.26-0.041-0.503-0.125-0.729c-0.082-0.228-0.2-0.423-0.354-0.59c-0.152-0.167-0.341-0.298-0.558-0.396   c-0.216-0.098-0.46-0.146-0.733-0.146s-0.523,0.048-0.75,0.146c-0.229,0.098-0.426,0.229-0.593,0.396   c-0.166,0.167-0.296,0.362-0.39,0.59s-0.141,0.471-0.141,0.729c0,0.259,0.047,0.503,0.141,0.73s0.224,0.422,0.39,0.59   c0.167,0.166,0.362,0.297,0.593,0.396c0.227,0.098,0.477,0.145,0.75,0.145c0.271,0,0.518-0.047,0.732-0.145   c0.214-0.1,0.402-0.23,0.558-0.396c0.152-0.166,0.271-0.363,0.354-0.59C58.768,10.442,58.809,10.2,58.809,9.941z M54.54,4.72h0.657   v3.66h0.021c0.104-0.16,0.232-0.297,0.381-0.41c0.147-0.112,0.3-0.207,0.459-0.279c0.16-0.072,0.326-0.127,0.496-0.159   c0.17-0.033,0.332-0.051,0.484-0.051c0.364,0,0.699,0.063,1.006,0.186c0.303,0.124,0.563,0.295,0.784,0.516   c0.22,0.221,0.392,0.479,0.515,0.779c0.123,0.301,0.186,0.627,0.186,0.979c0,0.353-0.063,0.681-0.186,0.98   s-0.295,0.561-0.515,0.779c-0.223,0.221-0.481,0.393-0.784,0.516c-0.307,0.123-0.642,0.186-1.006,0.186   c-0.152,0-0.314-0.018-0.484-0.051c-0.17-0.031-0.336-0.086-0.496-0.16c-0.159-0.072-0.313-0.166-0.459-0.279   c-0.146-0.111-0.273-0.25-0.381-0.41h-0.021v0.781H54.54V4.72z M62.389,11.469l1.431-3.869h0.803l-2.342,5.9   c-0.142,0.359-0.315,0.646-0.532,0.859c-0.22,0.213-0.529,0.32-0.938,0.32c-0.1,0-0.201-0.004-0.305-0.01   c-0.104-0.008-0.205-0.027-0.309-0.063l0.07-0.641c0.14,0.074,0.307,0.111,0.5,0.111c0.232,0,0.416-0.074,0.55-0.221   c0.133-0.146,0.25-0.354,0.353-0.619l0.34-0.9l-1.92-4.74h0.83L62.389,11.469z M68.209,7.54h0.84v0.74h0.021   c0.02-0.066,0.07-0.15,0.154-0.25c0.082-0.101,0.189-0.195,0.32-0.285c0.129-0.09,0.279-0.167,0.459-0.23   c0.178-0.063,0.371-0.094,0.586-0.094c0.354,0,0.646,0.072,0.891,0.219c0.238,0.147,0.438,0.367,0.59,0.66   c0.152-0.293,0.371-0.513,0.648-0.66c0.281-0.146,0.563-0.219,0.85-0.219c0.367,0,0.668,0.06,0.9,0.18   c0.23,0.119,0.418,0.277,0.551,0.476c0.133,0.197,0.229,0.42,0.275,0.67c0.045,0.25,0.072,0.508,0.072,0.774v2.761h-0.898V9.64   c0-0.18-0.012-0.353-0.035-0.52c-0.021-0.167-0.07-0.313-0.145-0.439c-0.076-0.126-0.18-0.229-0.314-0.306   c-0.133-0.075-0.311-0.114-0.529-0.114c-0.434,0-0.74,0.133-0.93,0.399c-0.188,0.267-0.279,0.609-0.279,1.029v2.59H71.34V9.8   c0-0.227-0.016-0.433-0.035-0.619c-0.021-0.188-0.068-0.349-0.141-0.484c-0.07-0.139-0.172-0.243-0.303-0.32   c-0.131-0.075-0.307-0.114-0.521-0.114c-0.16,0-0.314,0.031-0.465,0.095s-0.283,0.157-0.396,0.284s-0.203,0.289-0.271,0.485   c-0.066,0.197-0.104,0.429-0.104,0.695v2.46h-0.896L68.209,7.54L68.209,7.54z M76.75,8.12c0.252-0.232,0.545-0.408,0.879-0.525   c0.334-0.116,0.666-0.174,1-0.174c0.348,0,0.646,0.043,0.896,0.129c0.25,0.088,0.455,0.203,0.613,0.352   c0.16,0.146,0.279,0.314,0.355,0.505c0.074,0.188,0.111,0.389,0.111,0.595v2.421c0,0.166,0.004,0.318,0.014,0.459   c0.006,0.141,0.018,0.273,0.027,0.4h-0.801c-0.021-0.24-0.029-0.48-0.029-0.721h-0.02c-0.201,0.307-0.439,0.521-0.711,0.648   c-0.273,0.127-0.59,0.189-0.949,0.189c-0.221,0-0.43-0.029-0.631-0.09c-0.199-0.063-0.375-0.148-0.525-0.27   c-0.146-0.121-0.268-0.27-0.354-0.445c-0.086-0.178-0.129-0.381-0.129-0.615c0-0.307,0.063-0.563,0.205-0.77   c0.135-0.207,0.32-0.375,0.559-0.505c0.236-0.13,0.514-0.224,0.83-0.279c0.314-0.058,0.656-0.086,1.016-0.086h0.66V9.14   c0-0.12-0.021-0.24-0.07-0.359c-0.047-0.12-0.113-0.229-0.211-0.325c-0.092-0.097-0.209-0.173-0.35-0.23   c-0.139-0.057-0.307-0.084-0.5-0.084c-0.174,0-0.324,0.018-0.455,0.05c-0.129,0.032-0.248,0.075-0.354,0.125   c-0.107,0.051-0.203,0.108-0.289,0.176c-0.088,0.065-0.17,0.13-0.25,0.188L76.75,8.12z M79.289,10   c-0.217,0-0.434,0.013-0.654,0.035c-0.219,0.021-0.428,0.067-0.609,0.136c-0.186,0.066-0.332,0.16-0.449,0.279   c-0.113,0.121-0.176,0.273-0.176,0.461c0,0.271,0.092,0.469,0.273,0.59c0.184,0.119,0.434,0.18,0.746,0.18   c0.246,0,0.455-0.043,0.629-0.125c0.174-0.084,0.314-0.189,0.42-0.324s0.186-0.281,0.23-0.445c0.051-0.162,0.068-0.324,0.068-0.484   v-0.3L79.289,10L79.289,10z M86.67,12.241c0,0.359-0.063,0.688-0.188,0.984c-0.123,0.297-0.299,0.555-0.521,0.77   c-0.229,0.217-0.5,0.385-0.82,0.506c-0.32,0.119-0.674,0.18-1.059,0.18c-0.455,0-0.869-0.063-1.246-0.189   c-0.377-0.125-0.734-0.348-1.074-0.66l0.609-0.76c0.229,0.254,0.482,0.443,0.76,0.574c0.271,0.131,0.584,0.195,0.93,0.195   c0.334,0,0.611-0.049,0.83-0.145c0.221-0.098,0.395-0.223,0.525-0.375c0.129-0.154,0.223-0.328,0.27-0.525   c0.057-0.197,0.08-0.396,0.08-0.596v-0.699h-0.027c-0.176,0.287-0.406,0.498-0.705,0.635c-0.297,0.137-0.605,0.205-0.938,0.205   c-0.346,0-0.668-0.063-0.965-0.186s-0.551-0.293-0.766-0.51s-0.383-0.475-0.5-0.771c-0.119-0.295-0.182-0.617-0.182-0.964   c0-0.348,0.059-0.671,0.17-0.976c0.113-0.305,0.275-0.567,0.484-0.795c0.211-0.228,0.463-0.403,0.76-0.53s0.629-0.189,0.996-0.189   c0.32,0,0.631,0.07,0.934,0.211c0.307,0.14,0.543,0.336,0.719,0.59h0.02V7.54h0.9L86.67,12.241L86.67,12.241z M84.209,8.261   c-0.24,0-0.457,0.041-0.65,0.125c-0.191,0.082-0.354,0.196-0.488,0.34c-0.135,0.145-0.232,0.316-0.311,0.521   C82.686,9.45,82.65,9.672,82.65,9.911c0,0.478,0.145,0.865,0.42,1.154c0.279,0.291,0.66,0.436,1.145,0.436   c0.479,0,0.855-0.145,1.139-0.436c0.283-0.289,0.42-0.676,0.42-1.154c0-0.239-0.035-0.461-0.107-0.665   c-0.072-0.203-0.178-0.376-0.313-0.521c-0.133-0.144-0.297-0.256-0.49-0.34S84.449,8.261,84.209,8.261z M88.1,7.54H89v4.74h-0.9   V7.54z M87.889,5.841c0-0.181,0.066-0.336,0.195-0.466c0.131-0.13,0.285-0.194,0.465-0.194s0.336,0.064,0.465,0.194   c0.131,0.13,0.195,0.285,0.195,0.466c0,0.18-0.064,0.334-0.195,0.465C88.885,6.436,88.729,6.5,88.549,6.5s-0.334-0.064-0.465-0.194   C87.955,6.175,87.889,6.021,87.889,5.841z M93.818,8.8c-0.166-0.172-0.342-0.305-0.521-0.395c-0.186-0.091-0.4-0.136-0.654-0.136   c-0.248,0-0.463,0.045-0.645,0.136c-0.188,0.09-0.34,0.213-0.465,0.369c-0.119,0.157-0.215,0.337-0.275,0.54   c-0.063,0.203-0.1,0.415-0.1,0.636s0.037,0.427,0.111,0.625c0.072,0.197,0.176,0.369,0.313,0.516   c0.133,0.146,0.293,0.262,0.479,0.346c0.189,0.082,0.396,0.125,0.633,0.125c0.254,0,0.471-0.047,0.648-0.137   c0.18-0.09,0.348-0.221,0.5-0.395l0.641,0.641c-0.23,0.26-0.506,0.447-0.814,0.561c-0.313,0.111-0.641,0.17-0.984,0.17   c-0.365,0-0.701-0.061-1.006-0.182c-0.303-0.119-0.563-0.287-0.785-0.504c-0.219-0.217-0.389-0.477-0.51-0.779   c-0.119-0.305-0.184-0.641-0.184-1.005c0-0.365,0.064-0.703,0.184-1.01c0.121-0.308,0.289-0.57,0.506-0.791   c0.219-0.22,0.479-0.392,0.779-0.515c0.303-0.123,0.643-0.186,1.016-0.186c0.348,0,0.68,0.063,0.994,0.186   c0.314,0.124,0.594,0.312,0.826,0.564L93.818,8.8z"/>
	<path id="Combined-Shape_1_" fill="#B91912" d="M95.25,4.72h0.896v3.5h0.021c0.16-0.246,0.389-0.439,0.688-0.584   c0.299-0.144,0.619-0.215,0.959-0.215c0.367,0,0.699,0.063,0.996,0.189c0.297,0.126,0.549,0.302,0.76,0.524   c0.209,0.223,0.371,0.486,0.484,0.789c0.113,0.304,0.17,0.633,0.17,0.985c0,0.353-0.057,0.681-0.17,0.978   c-0.113,0.301-0.275,0.564-0.484,0.791c-0.211,0.229-0.463,0.402-0.76,0.529s-0.629,0.189-0.996,0.189   c-0.316,0-0.631-0.068-0.934-0.209c-0.305-0.141-0.543-0.338-0.715-0.59h-0.021v0.68h-0.896L95.25,4.72L95.25,4.72z M97.709,11.561   c0.236,0,0.457-0.043,0.646-0.125c0.193-0.084,0.357-0.197,0.49-0.342c0.135-0.143,0.236-0.314,0.311-0.52   c0.074-0.203,0.109-0.425,0.109-0.665s-0.035-0.461-0.109-0.665c-0.07-0.203-0.176-0.376-0.311-0.521   c-0.133-0.144-0.297-0.256-0.49-0.34c-0.189-0.084-0.41-0.125-0.646-0.125c-0.24,0-0.457,0.041-0.65,0.125   c-0.191,0.082-0.354,0.196-0.488,0.34c-0.135,0.145-0.232,0.316-0.311,0.521C96.186,9.449,96.15,9.671,96.15,9.91   s0.035,0.461,0.109,0.665c0.072,0.205,0.176,0.377,0.311,0.52c0.137,0.146,0.297,0.258,0.488,0.342   C97.252,11.518,97.469,11.561,97.709,11.561z"/>
	<path id="Path_6_" fill="#B91912" d="M101.359,7.54h0.9V8.27h0.02c0.063-0.127,0.143-0.241,0.24-0.346   c0.104-0.104,0.211-0.191,0.334-0.265c0.123-0.074,0.26-0.131,0.406-0.176c0.145-0.044,0.293-0.063,0.438-0.063   c0.146,0,0.279,0.02,0.4,0.06l-0.041,0.971c-0.072-0.021-0.145-0.037-0.219-0.051c-0.074-0.015-0.146-0.021-0.223-0.021   c-0.439,0-0.775,0.123-1.014,0.37c-0.229,0.247-0.35,0.63-0.35,1.149v2.381h-0.9V7.539L101.359,7.54L101.359,7.54z"/>
	<polygon id="Path_7_" fill="#B91912" points="105.129,7.54 106.029,7.54 106.029,12.28 105.129,12.28  "/>
	<path id="Path_9_" fill="#B91912" d="M110.85,8.8c-0.168-0.172-0.342-0.305-0.525-0.395c-0.184-0.091-0.398-0.136-0.652-0.136   c-0.246,0-0.461,0.045-0.645,0.136c-0.186,0.09-0.336,0.213-0.459,0.369c-0.123,0.157-0.219,0.337-0.279,0.54   c-0.064,0.203-0.096,0.415-0.096,0.636s0.037,0.427,0.107,0.625c0.074,0.197,0.18,0.369,0.313,0.516   c0.135,0.146,0.293,0.262,0.479,0.346c0.188,0.082,0.396,0.125,0.629,0.125c0.254,0,0.473-0.047,0.65-0.137   c0.18-0.09,0.346-0.221,0.5-0.395l0.641,0.641c-0.232,0.26-0.506,0.447-0.814,0.561c-0.311,0.111-0.639,0.17-0.98,0.17   c-0.367,0-0.703-0.061-1.006-0.182c-0.307-0.119-0.564-0.287-0.785-0.504c-0.223-0.217-0.393-0.477-0.512-0.779   c-0.117-0.305-0.182-0.641-0.182-1.005c0-0.365,0.063-0.703,0.182-1.01c0.119-0.308,0.287-0.57,0.508-0.791   c0.215-0.22,0.477-0.392,0.775-0.515c0.307-0.123,0.645-0.186,1.02-0.186c0.346,0,0.678,0.063,0.994,0.186   c0.314,0.124,0.592,0.312,0.822,0.564L110.85,8.8z"/>
	<polygon id="Path_10_" fill="#B91912" points="112.279,4.72 113.18,4.72 113.18,9.601 115.219,7.55 116.469,7.55 114.26,9.7    116.658,12.28 115.379,12.28 113.18,9.821 113.18,12.28 112.279,12.28  "/>
	<path id="Path_11_" fill="#B91912" d="M119.988,8.731c-0.104-0.134-0.234-0.244-0.395-0.335c-0.156-0.09-0.348-0.135-0.574-0.135   c-0.213,0-0.396,0.045-0.555,0.135c-0.16,0.091-0.236,0.223-0.236,0.396c0,0.141,0.045,0.254,0.135,0.34   c0.094,0.086,0.197,0.157,0.32,0.211c0.123,0.053,0.256,0.092,0.396,0.119c0.141,0.026,0.26,0.051,0.355,0.07   c0.193,0.047,0.375,0.104,0.547,0.17c0.17,0.065,0.314,0.152,0.438,0.26s0.221,0.236,0.291,0.391   c0.066,0.152,0.105,0.34,0.105,0.561c0,0.266-0.059,0.494-0.172,0.684c-0.109,0.191-0.26,0.348-0.438,0.467   c-0.184,0.119-0.389,0.205-0.615,0.26c-0.229,0.053-0.463,0.08-0.693,0.08c-0.396,0-0.736-0.061-1.035-0.182   c-0.297-0.119-0.564-0.34-0.795-0.658l0.684-0.563c0.145,0.146,0.309,0.277,0.486,0.391c0.184,0.113,0.398,0.17,0.66,0.17   c0.111,0,0.229-0.012,0.348-0.035c0.113-0.023,0.221-0.061,0.311-0.109s0.162-0.113,0.219-0.191   c0.061-0.074,0.086-0.164,0.086-0.264c0-0.133-0.041-0.244-0.125-0.33c-0.084-0.088-0.184-0.156-0.301-0.205   c-0.115-0.051-0.24-0.09-0.369-0.121c-0.131-0.027-0.246-0.055-0.346-0.074c-0.193-0.046-0.377-0.099-0.549-0.159   c-0.174-0.062-0.328-0.142-0.461-0.24c-0.137-0.101-0.24-0.228-0.32-0.38c-0.08-0.153-0.119-0.343-0.119-0.569   c0-0.248,0.051-0.463,0.154-0.646c0.104-0.186,0.24-0.335,0.41-0.455s0.361-0.21,0.58-0.271c0.217-0.06,0.436-0.09,0.652-0.09   c0.318,0,0.627,0.061,0.92,0.18c0.293,0.121,0.525,0.32,0.697,0.602L119.988,8.731z"/>
</g>
</svg>