<?xml version="1.0" encoding="UTF-8"?>
<svg width="48px" height="15px" viewBox="0 0 48 15" version="1.1" xmlns="http://www.w3.org/2000/svg" xmlns:xlink="http://www.w3.org/1999/xlink">
    <!-- Generator: Sketch 48.2 (47327) - http://www.bohemiancoding.com/sketch -->
    <title>Group 44</title>
    <desc>Created with Sketch.</desc>
    <defs></defs>
    <g id="001-MS-Business-Final" stroke="none" stroke-width="1" fill="none" fill-rule="evenodd" transform="translate(-48.000000, -312.000000)">
        <g id="Group-76" transform="translate(0.000000, 97.000000)">
            <g id="Group-13" transform="translate(43.000000, 65.000000)">
                <g id="Group-107" transform="translate(0.000000, 90.000000)">
                    <g id="Group-18" transform="translate(5.000000, 58.000000)">
                        <g id="Group-45">
                            <g id="Group-44" transform="translate(0.000000, 2.000000)">
                                <polygon id="Path-2" fill="#FFE063" transform="translate(24.004386, 7.500000) scale(-1, 1) translate(-24.004386, -7.500000) " points="48.0087713 0 4.54747351e-13 0 6.00441278 7.54643898 0.00877125496 15 48.0087713 15"></polygon>
                                <path d="M10.8535156,7.70507812 C10.8535156,9.12305396 10.5019566,10.2128868 9.79882812,10.9746094 C9.09569961,11.7363319 8.08789719,12.1171875 6.77539062,12.1171875 C5.46288406,12.1171875 4.45508164,11.7363319 3.75195312,10.9746094 C3.04882461,10.2128868 2.69726562,9.11914775 2.69726562,7.69335938 C2.69726562,6.267571 3.04980116,5.1787147 3.75488281,4.42675781 C4.45996446,3.67480093 5.47069654,3.29882812 6.78710938,3.29882812 C8.10352221,3.29882812 9.11034808,3.67773059 9.80761719,4.43554688 C10.5048863,5.19336316 10.8535156,6.28319602 10.8535156,7.70507812 Z M4.6015625,7.70507812 C4.6015625,8.66211416 4.78320131,9.38281008 5.14648438,9.8671875 C5.50976744,10.3515649 6.05273076,10.59375 6.77539062,10.59375 C8.22461662,10.59375 8.94921875,9.630869 8.94921875,7.70507812 C8.94921875,5.77538098 8.22852283,4.81054688 6.78710938,4.81054688 C6.06444951,4.81054688 5.51953309,5.05370851 5.15234375,5.54003906 C4.78515441,6.02636962 4.6015625,6.74804209 4.6015625,7.70507812 Z M14.4160156,12 L12.6289062,12 L12.6289062,3.43359375 L17.5390625,3.43359375 L17.5390625,4.921875 L14.4160156,4.921875 L14.4160156,7.13085938 L17.3222656,7.13085938 L17.3222656,8.61328125 L14.4160156,8.61328125 L14.4160156,12 Z M21.0019531,12 L19.2148438,12 L19.2148438,3.43359375 L24.125,3.43359375 L24.125,4.921875 L21.0019531,4.921875 L21.0019531,7.13085938 L23.9082031,7.13085938 L23.9082031,8.61328125 L21.0019531,8.61328125 L21.0019531,12 Z M30.734375,12 L25.8007812,12 L25.8007812,3.43359375 L30.734375,3.43359375 L30.734375,4.921875 L27.6171875,4.921875 L27.6171875,6.80273438 L30.5175781,6.80273438 L30.5175781,8.29101563 L27.6171875,8.29101563 L27.6171875,10.5 L30.734375,10.5 L30.734375,12 Z M34.3378906,7.23632812 L34.9238281,7.23632812 C35.4980497,7.23632812 35.9218736,7.14062596 36.1953125,6.94921875 C36.4687514,6.75781154 36.6054688,6.4570333 36.6054688,6.046875 C36.6054688,5.64062297 36.4658217,5.35156336 36.1865234,5.1796875 C35.9072252,5.00781164 35.4746123,4.921875 34.8886719,4.921875 L34.3378906,4.921875 L34.3378906,7.23632812 Z M34.3378906,8.71289062 L34.3378906,12 L32.5214844,12 L32.5214844,3.43359375 L35.0175781,3.43359375 C36.1816464,3.43359375 37.042966,3.64550569 37.6015625,4.06933594 C38.160159,4.49316618 38.4394531,5.13671443 38.4394531,6 C38.4394531,6.50390877 38.3007826,6.95214647 38.0234375,7.34472656 C37.7460924,7.73730665 37.3535182,8.04492076 36.8457031,8.26757812 C38.1347721,10.193369 38.9746074,11.4374972 39.3652344,12 L37.3496094,12 L35.3046875,8.71289062 L34.3378906,8.71289062 Z" id="OFFER" fill="#333333"></path>
                            </g>
                        </g>
                    </g>
                </g>
            </g>
        </g>
    </g>
</svg>